<svg width="777" height="512" viewBox="0 0 777 512" fill="none" xmlns="http://www.w3.org/2000/svg">
<g clip-path="url(#clip0_254_2)">
<path d="M643.965 85.22L607.355 57.96L587.175 49.28L584.795 37.71C590.785 34.01 594.475 27.43 594.475 20.37C594.475 9.14002 585.345 0 574.105 0C562.875 0 553.735 9.14001 553.735 20.37C553.735 27.96 558.025 34.98 564.735 38.47L562.805 50.19L547.125 57.76H546.155L544.355 59.1L541.795 60.33L541.885 60.94L463.615 77.8L472.705 89.37L544.775 82.06L545.845 141L551.945 279.72L551.185 302.24L570.545 303.05L568.295 279.75L578.435 164.09L593.555 280.51L594.305 301.57H612.285L608.475 138.36L608.115 129.71L608.015 127.39L606.065 128.67L606.165 131L606.475 138.36L602.885 212.26V212.33L610.115 299.57H596.235L595.555 280.4L577.665 150.03L566.295 279.67L566.285 279.76L568.335 300.95L553.255 300.32L553.935 279.76L547.845 140.9L546.715 78.39L473.145 86.69L466.455 78.18L544.035 61.83L543.995 61.49L545.315 60.86L546.815 59.76H547.585L564.605 51.54L566.775 38.38L567.555 37.6L566.275 36.99C559.875 33.97 555.735 27.45 555.735 20.37C555.735 10.24 563.975 2.00001 574.105 2.00001C584.235 2.00001 592.475 10.24 592.475 20.37C592.475 26.96 588.915 33.08 583.185 36.35L582.555 36.71L585.435 50.71L606.255 59.63L642.655 86.74L644.465 88.09L645.605 87.54L645.765 86.56L643.965 85.22ZM603.885 76.65L605.285 110.05L605.385 112.46L607.335 111.01L607.235 108.6L606.055 80.47L626.705 94.1L628.955 95.58L631.045 94.57L629.105 93.29L603.885 76.65ZM603.885 76.65L605.285 110.05L607.235 108.6L606.055 80.47L626.705 94.1L627.155 93.76H628.125L629.105 93.29L603.885 76.65Z" fill="#3F3D56"/>
<path d="M754.465 198.47L634.625 107.42L633.605 105.68L630.655 7.38008C628.775 7.42006 636.075 4.01008 643.445 9.48006L740.645 81.5401C745.365 85.0401 748.395 90.4 748.965 96.2401L757.985 188.86C758.715 196.39 753.085 201.6 754.465 198.47Z" fill="#00FFFF"/>
<path d="M722.148 102.409L763.289 66.2738L774.883 56.0903C776.337 54.8137 774.208 52.6989 772.762 53.9689L731.621 90.1041L720.027 100.288C718.573 101.564 720.702 103.679 722.148 102.409Z" fill="#3F3D56"/>
<path d="M745.702 59.642L760.77 56.757L768.547 55.268C769.987 54.9923 773.475 53.6066 773.859 55.8159C774.201 57.7789 773.38 60.162 773.052 62.0851L771.76 69.6583L769.134 85.049C768.809 86.9522 771.799 87.2068 772.122 85.3136C773.623 76.519 775.137 67.7266 776.624 58.9296C777.146 55.8408 776.852 51.9406 772.897 51.6285C770.893 51.4703 768.745 52.175 766.793 52.5487L760.231 53.8051L745.163 56.6901C743.27 57.0525 743.8 60.0063 745.702 59.642Z" fill="#3F3D56"/>
<path d="M701.558 76.9784L700.015 78.2502L735.763 121.636L737.307 120.364L701.558 76.9784Z" fill="#3F3D56"/>
<path d="M166.437 392.21C165.592 390.786 161.94 392.311 161.268 391.019C160.599 389.731 163.993 387.77 165.932 383.289C166.281 382.481 168.485 377.388 166.853 375.817C163.762 372.839 149.614 385.13 144.663 381.108C143.576 380.225 142.817 378.463 139.528 375.602C138.22 374.464 137.429 373.95 136.663 374.141C135.577 374.412 135.491 375.866 134.326 378.725C132.579 383.012 131.546 382.753 130.528 386.174C129.772 388.713 129.945 390.189 129.056 390.477C127.798 390.884 126.639 388.191 125.045 388.432C123.418 388.678 122.434 391.814 122.123 394.162C121.54 398.568 123.158 401.475 124.055 404.532C125.03 407.855 125.608 412.907 123.357 420.06L101.08 482.826C105.998 469.947 120.238 434.641 126.222 421.521C127.95 417.733 129.857 413.892 133.773 412.376C137.544 410.916 142.722 411.787 149.324 410.197C150.095 410.011 152.234 409.467 152.503 408.208C152.726 407.168 151.467 406.587 151.661 405.613C151.92 404.306 154.395 404.29 157.436 402.782C159.581 401.719 160.917 400.454 162.066 399.367C162.412 399.039 167.561 394.105 166.437 392.21Z" fill="#F2F2F2"/>
<path d="M78.7912 425.253C77.8489 425.256 77.5432 427.489 76.7153 427.446C75.8904 427.403 75.9068 425.171 74.267 422.927C73.9713 422.522 72.1077 419.971 70.8658 420.318C68.512 420.976 70.4624 431.467 67.0597 432.736C66.3129 433.015 65.229 432.879 62.876 433.667C61.9399 433.981 61.4594 434.221 61.3323 434.652C61.152 435.264 61.8408 435.725 62.9078 437.122C64.5079 439.216 64.0827 439.649 65.4679 441.135C66.4961 442.239 67.2705 442.58 67.1551 443.099C66.9918 443.834 65.3358 443.626 64.994 444.478C64.6453 445.348 65.9006 446.735 66.9633 447.565C68.9576 449.123 70.8514 449.167 72.6107 449.609C74.5225 450.09 77.1693 451.264 80.0304 454.432L104.409 483.476C99.5065 477.346 86.2869 460.17 81.5741 453.447C80.2136 451.507 78.8784 449.462 79.2642 447.103C79.6357 444.831 81.5575 442.541 82.6817 438.842C82.813 438.41 83.1632 437.203 82.6232 436.707C82.1769 436.298 81.5287 436.748 81.1063 436.372C80.5396 435.867 81.2458 434.648 81.3832 432.721C81.48 431.361 81.2449 430.341 81.0426 429.463C80.9816 429.198 80.0457 425.248 78.7912 425.253Z" fill="#F2F2F2"/>
<path d="M97.5912 429.473L97.0234 424.405L97.2828 424.02C98.4832 422.244 99.095 420.509 99.1023 418.862C99.1035 418.6 99.0913 418.338 99.0791 418.071C99.0301 417.014 98.969 415.7 99.6542 414.168C100.038 413.314 101.118 411.337 102.74 411.581C103.177 411.642 103.507 411.843 103.758 412.078C103.795 412.019 103.833 411.961 103.873 411.897C104.379 411.126 104.779 410.796 105.164 410.478C105.46 410.233 105.766 409.981 106.246 409.384C106.456 409.122 106.62 408.892 106.758 408.698C107.178 408.114 107.726 407.416 108.693 407.428C109.726 407.477 110.266 408.331 110.625 408.897C111.265 409.905 111.555 410.632 111.747 411.114C111.817 411.29 111.896 411.488 111.937 411.549C112.27 412.039 114.975 411.581 115.994 411.415C118.284 411.033 120.265 410.703 121.081 412.147C121.666 413.179 121.231 414.545 119.751 416.314C119.289 416.865 118.799 417.283 118.363 417.611C118.724 417.827 119.047 418.157 119.178 418.676C119.486 419.904 118.43 421.135 116.041 422.339C115.447 422.64 114.648 423.042 113.529 423.235C113.001 423.325 112.527 423.348 112.12 423.36C112.112 423.595 112.057 423.849 111.913 424.111C111.494 424.882 110.62 425.249 109.304 425.161C107.855 425.085 106.662 424.808 105.609 424.566C104.691 424.356 103.899 424.177 103.277 424.219C102.125 424.312 101.236 425.234 100.194 426.431L97.5912 429.473Z" fill="#F2F2F2"/>
<path d="M100.225 399.297L95.4663 401.132L95.0289 400.978C93.0059 400.268 91.1724 400.116 89.5774 400.527C89.3238 400.592 89.0736 400.67 88.8187 400.75C87.8085 401.065 86.5528 401.458 84.8972 401.183C83.9736 401.028 81.7872 400.486 81.6123 398.854C81.5607 398.416 81.671 398.046 81.8346 397.744C81.7685 397.723 81.7021 397.701 81.6303 397.678C80.7565 397.385 80.3354 397.082 79.9299 396.79C79.6181 396.565 79.2966 396.333 78.5974 396.021C78.2907 395.884 78.0266 395.784 77.8045 395.699C77.1323 395.441 76.3186 395.088 76.0853 394.15C75.8707 393.138 76.5597 392.399 77.0155 391.908C77.8285 391.034 78.458 390.569 78.8756 390.261C79.0283 390.148 79.1999 390.021 79.2489 389.967C79.6379 389.521 78.509 387.02 78.0895 386.076C77.1395 383.958 76.3175 382.126 77.5071 380.97C78.3577 380.143 79.7887 380.216 81.8758 381.2C82.5254 381.506 83.0546 381.875 83.4823 382.213C83.5991 381.809 83.8367 381.413 84.3054 381.155C85.4155 380.545 86.874 381.254 88.6448 383.26C89.0865 383.758 89.6774 384.429 90.1484 385.463C90.3697 385.95 90.5115 386.404 90.6264 386.794C90.8558 386.742 91.1159 386.731 91.4055 386.803C92.2576 387.013 92.8343 387.765 93.0831 389.061C93.3772 390.482 93.4123 391.706 93.4448 392.785C93.4744 393.728 93.5023 394.539 93.7003 395.129C94.0826 396.221 95.2003 396.846 96.6223 397.551L100.225 399.297Z" fill="#F2F2F2"/>
<path d="M97.5912 384.366L97.0234 379.298L97.2828 378.914C98.4832 377.137 99.095 375.402 99.1023 373.755C99.1035 373.493 99.0913 373.231 99.0791 372.964C99.0301 371.907 98.969 370.593 99.6542 369.061C100.038 368.207 101.118 366.23 102.74 366.474C103.177 366.536 103.507 366.736 103.758 366.971C103.795 366.912 103.833 366.854 103.873 366.79C104.379 366.019 104.779 365.689 105.164 365.371C105.46 365.126 105.766 364.874 106.246 364.277C106.456 364.015 106.62 363.785 106.758 363.592C107.178 363.007 107.726 362.309 108.693 362.321C109.726 362.37 110.266 363.224 110.625 363.79C111.265 364.798 111.555 365.525 111.747 366.007C111.817 366.183 111.896 366.381 111.937 366.443C112.27 366.932 114.975 366.474 115.994 366.308C118.284 365.926 120.265 365.596 121.081 367.04C121.666 368.072 121.231 369.438 119.751 371.207C119.289 371.758 118.799 372.176 118.363 372.504C118.724 372.72 119.047 373.05 119.178 373.569C119.486 374.797 118.43 376.028 116.041 377.232C115.447 377.533 114.648 377.935 113.529 378.128C113.001 378.219 112.527 378.241 112.12 378.253C112.112 378.488 112.057 378.742 111.913 379.004C111.494 379.775 110.62 380.142 109.304 380.054C107.855 379.978 106.662 379.702 105.609 379.459C104.691 379.249 103.899 379.07 103.277 379.112C102.125 379.205 101.236 380.127 100.194 381.324L97.5912 384.366Z" fill="#F2F2F2"/>
<path d="M102.776 482.743L101.714 482.078L100.476 482.22C100.456 482.105 100.389 481.84 100.288 481.427C99.7334 479.161 98.0436 472.264 96.634 461.404C95.6502 453.822 95.0934 446.028 94.9784 438.234C94.8634 430.427 95.2329 424.517 95.5291 419.767C95.753 416.184 96.0246 412.773 96.2914 409.45C97.001 400.571 97.6704 392.185 97.1723 382.9C97.0622 380.827 96.8309 376.513 94.3103 371.922C92.8481 369.259 90.8341 366.895 88.3232 364.898L89.8846 362.936C92.656 365.143 94.8842 367.761 96.5079 370.718C99.3026 375.808 99.5547 380.509 99.6758 382.768C100.182 392.216 99.5058 400.684 98.7887 409.648C98.5244 412.959 98.2528 416.356 98.0301 419.924C97.7364 424.63 97.3706 430.488 97.4844 438.195C97.5969 445.896 98.1475 453.595 99.1179 461.081C100.51 471.804 102.176 478.598 102.723 480.83C103.014 482.022 103.075 482.271 102.776 482.743Z" fill="#F2F2F2"/>
<path d="M83.7275 368.88C83.6247 368.88 83.5207 368.877 83.4154 368.87C81.2815 368.755 79.3054 367.478 77.5409 365.074C76.7138 363.944 76.2904 362.654 75.4461 360.082C75.3152 359.686 74.6789 357.674 74.2922 354.906C74.0389 353.098 74.0708 352.342 74.4293 351.674C74.827 350.93 75.4706 350.411 76.195 350.061C76.1632 349.821 76.1888 349.574 76.2929 349.322C76.7199 348.277 77.8554 348.414 78.4696 348.48C78.7804 348.519 79.1683 348.571 79.5868 348.548C80.2451 348.517 80.5987 348.321 81.1347 348.027C81.6474 347.746 82.2848 347.396 83.2307 347.203C85.0955 346.813 86.658 347.342 87.1731 347.516C89.8834 348.419 91.2196 350.526 92.7662 352.966C93.0746 353.455 94.133 355.237 94.8316 357.679C95.3358 359.441 95.2648 360.224 95.1131 360.807C94.8047 362.003 94.0767 362.688 92.2278 364.201C90.297 365.784 89.3279 366.577 88.4958 367.059C86.5589 368.178 85.3426 368.88 83.7275 368.88Z" fill="#F2F2F2"/>
<path d="M583.04 481.833C583.04 482.297 582.664 482.673 582.2 482.673H0V480.993H582.2C582.664 480.993 583.04 481.37 583.04 481.833Z" fill="#E6E6E6"/>
<path d="M264.592 261.988C293.16 261.988 316.354 285.182 316.354 313.75V330.794H264.592V261.988Z" fill="#2F2E41"/>
<path d="M284.791 309.962C299.085 309.962 310.672 298.375 310.672 284.081C310.672 269.788 299.085 258.2 284.791 258.2C270.497 258.2 258.91 269.788 258.91 284.081C258.91 298.375 270.497 309.962 284.791 309.962Z" fill="#FFB6B6"/>
<path d="M302.151 416.327L278.164 402.44C278.164 402.44 245.339 369.56 244.392 385.081C243.445 400.601 223.561 455.012 268.853 463.444C314.145 471.877 342.551 455.464 342.551 455.464L329.295 430.215L302.151 416.327Z" fill="#2F2E41"/>
<path d="M215.967 365.129L202.539 388.794L217.114 447.325L228.223 443.711L229.33 390.66L236.127 376.989L215.967 365.129Z" fill="#FFB6B6"/>
<path d="M281.639 334.081C281.639 334.081 261.478 322.221 252.036 327.32C242.593 332.418 211.951 370.04 211.951 370.04L238.429 388.364L281.639 334.081Z" fill="#00FFFF"/>
<path d="M270.559 464.298L231.557 461.171L229.864 482.923L274.299 482.262L270.559 464.298Z" fill="#FFB6B6"/>
<path d="M298.995 310.909L272.483 314.066L268.695 327.322L249.758 333.634L260.489 401.809C260.489 401.809 290.789 406.227 302.151 422.008C313.513 437.789 333.713 440.314 333.713 440.314V390.2L332.451 323.534L305.939 319.116L298.995 310.909Z" fill="#00FFFF"/>
<path d="M325.507 440.946C325.507 440.946 369.694 437.158 378.531 445.996C387.369 454.833 390.525 471.245 379.794 478.82C369.063 486.395 340.025 484.502 340.025 484.502L334.344 452.939L325.507 440.946Z" fill="#2F2E41"/>
<path d="M346.337 449.783L265.538 461.777L264.726 484.712L340.025 484.501L346.337 449.783Z" fill="#2F2E41"/>
<path d="M355.175 383.503L351.072 405.912L308.779 451.361L301.52 442.208L329.925 397.39L331.819 382.24L355.175 383.503Z" fill="#FFB6B6"/>
<path d="M258.417 466.227C258.417 466.227 242.71 467.754 241.191 471.707C239.673 475.66 241.724 483.706 241.724 483.706L192.354 477.849C188.785 477.425 186.627 473.634 188.152 470.379C191.356 463.541 198.748 454.159 214.917 455.87C239.908 458.513 251.479 453.583 251.479 453.583L264.651 463.491L258.417 466.227Z" fill="#2F2E41"/>
<path d="M317.616 321.325C317.616 321.325 340.972 322.587 346.022 332.056C351.072 341.525 355.806 389.815 355.806 389.815L323.613 390.446L317.616 321.325Z" fill="#00FFFF"/>
<path d="M263.329 430.53L270.273 469.036L291.735 465.114L279.741 422.324L263.329 430.53Z" fill="#FFB6B6"/>
<path d="M294.575 459.883L265.538 460.514L267.432 493.339C267.432 493.339 266.801 511.63 282.582 511.638C298.363 511.645 304.675 512.908 304.675 509.751C304.675 506.595 301.519 488.018 301.519 488.018L294.575 468.089V459.883Z" fill="#2F2E41"/>
<path d="M282.582 433.371L258.595 438.421C242.89 403.917 233.318 370.725 232.083 339.315C232.083 339.315 229.558 319.747 249.126 319.116C268.695 318.484 271.22 347.522 271.22 347.522L282.582 433.371Z" fill="#2F2E41"/>
<path d="M305.592 460.303C311.722 454.673 313.872 447.04 310.395 443.254C306.918 439.468 299.13 440.962 293 446.592C286.871 452.221 284.72 459.854 288.197 463.64C291.674 467.426 299.462 465.932 305.592 460.303Z" fill="#FFB6B6"/>
<path d="M226.235 466.482C231.327 465.78 234.534 458.528 233.399 450.283C232.263 442.039 227.214 435.924 222.122 436.625C217.03 437.327 213.822 444.579 214.958 452.824C216.093 461.068 221.142 467.183 226.235 466.482Z" fill="#FFB6B6"/>
<path d="M334.34 305.02C333.024 301.017 330.425 297.512 329.262 293.462C327.718 288.084 324.431 300.015 324.111 294.429C323.501 283.812 307.298 256.503 298.048 251.257C288.797 246.011 283.485 247.593 274.06 252.519C274.06 252.519 269.486 252.81 263.791 255.622C258.095 258.434 252.969 262.937 250.754 268.889C248.998 273.608 249.192 278.789 248.606 283.789C246.971 297.719 239.163 310.967 240.839 324.892C241.362 329.237 243.013 333.729 246.565 336.285C250.117 338.84 255.856 338.562 258.194 334.863C258.992 333.601 259.33 332.104 260.014 330.776C260.697 329.449 261.933 328.211 263.425 328.253C265.669 328.315 266.811 331.325 265.926 333.388C265.042 335.451 262.963 336.696 261.011 337.804C265.66 339.895 271.427 339.244 275.492 336.168C279.558 333.093 281.753 327.72 281.005 322.677C279.951 315.571 269.599 317.042 268.379 309.963C267.491 304.809 264.374 296.185 265.223 291.025C266.072 285.865 270.151 292.113 265.854 289.131C270.581 291.41 280.692 275.822 285.64 274.076C290.588 272.33 294.784 268.549 297.034 263.808C302.282 271.417 306.899 269.351 308.779 278.4C310.658 287.45 308.921 308.01 301.181 313.063C304.278 315.176 306.747 318.198 308.201 321.655C309.024 323.613 309.558 325.756 310.924 327.382C313.534 330.488 318.354 330.677 322.195 329.371C326.958 327.752 331.03 324.195 333.275 319.693C335.521 315.191 335.912 309.798 334.34 305.02Z" fill="#2F2E41"/>
<path d="M643.965 85.22L643.805 86.19L642.655 86.74L644.465 88.09L645.605 87.54L645.765 86.56L643.965 85.22ZM628.125 93.76H627.155L626.705 94.1L625.355 95.1L622.795 96.33L622.885 96.94L607.235 108.6L605.285 110.05L558.615 144.8L567.705 156.37L577.555 149.87L606.165 131L606.065 128.67L568.145 153.69L561.455 145.18L605.385 112.46L607.335 111.01L625.035 97.83L624.995 97.49L626.315 96.86L627.815 95.76H628.585L628.955 95.58L631.045 94.57L629.105 93.29L628.125 93.76ZM733.125 168.3L688.355 93.96L668.175 85.28L665.795 73.71C671.785 70.01 675.475 63.43 675.475 56.37C675.475 45.14 666.345 36 655.105 36C643.875 36 634.735 45.14 634.735 56.37C634.735 63.96 639.025 70.98 645.735 74.47L643.965 85.22L643.805 86.19L642.655 86.74L629.105 93.29L628.125 93.76H627.155L626.705 94.1L625.355 95.1L622.795 96.33L622.885 96.94L607.235 108.6L605.285 110.05L558.615 144.8L567.705 156.37L577.555 149.87L606.165 131L608.115 129.71L625.775 118.06L626.845 177L632.945 315.72L632.185 338.24L651.545 339.05L649.295 315.75L659.435 200.09L674.555 316.51L675.305 337.57H693.285L689.475 174.36L687.055 116.47L724.025 179.87L733.125 168.3ZM684.885 112.65L687.475 174.36L683.885 248.26V248.33L691.115 335.57H677.235L676.555 316.4L671.535 250.39L658.665 186.03L647.295 315.67L647.285 315.76L649.335 336.95L634.255 336.32L634.935 315.76V247.51L628.845 176.9L627.715 114.39L608.015 127.39L606.065 128.67L568.145 153.69L561.455 145.18L605.385 112.46L607.335 111.01L625.035 97.83L624.995 97.49L626.315 96.86L627.815 95.76H628.585L628.955 95.58L631.045 94.57L644.465 88.09L645.605 87.54L645.765 86.56L647.775 74.38L648.555 73.6L647.275 72.99C640.875 69.97 636.735 63.45 636.735 56.37C636.735 46.24 644.975 38 655.105 38C665.235 38 673.475 46.24 673.475 56.37C673.475 62.96 669.915 69.08 664.185 72.35L663.555 72.71L666.435 86.71L687.255 95.63L730.285 168.68L723.595 177.19L684.885 112.65ZM629.105 93.29L628.125 93.76H627.155L626.705 94.1L625.355 95.1L622.795 96.33L622.885 96.94L607.235 108.6L605.285 110.05L605.385 112.46L607.335 111.01L625.035 97.83L624.995 97.49L626.315 96.86L627.815 95.76H628.585L628.955 95.58L631.045 94.57L629.105 93.29Z" fill="#3F3D56"/>
</g>
<defs>
<clipPath id="clip0_254_2">
<rect width="776.82" height="511.893" fill="white"/>
</clipPath>
</defs>
</svg>
